<?xml version="1.0" encoding="UTF-8" standalone="no"?>
<svg
   xmlns:dc="http://purl.org/dc/elements/1.1/"
   xmlns:cc="http://creativecommons.org/ns#"
   xmlns:rdf="http://www.w3.org/1999/02/22-rdf-syntax-ns#"
   xmlns:svg="http://www.w3.org/2000/svg"
   xmlns="http://www.w3.org/2000/svg"
   xmlns:sodipodi="http://sodipodi.sourceforge.net/DTD/sodipodi-0.dtd"
   xmlns:inkscape="http://www.inkscape.org/namespaces/inkscape"
   width="154mm"
   height="243mm"
   viewBox="0 0 123.2 194.4"
   version="1.1"
   id="svg322"
   inkscape:version="1.0.2 (e86c870879, 2021-01-15)"
   sodipodi:docname="logoV2.svg">
  <defs
     id="defs316">
    <inkscape:perspective
       sodipodi:type="inkscape:persp3d"
       inkscape:vp_x="0 : 182.79995 : 1"
       inkscape:vp_y="0 : 799.99999 : 0"
       inkscape:vp_z="400.00009 : 182.79995 : 1"
       inkscape:persp3d-origin="200.00004 : 107.46664 : 1"
       id="perspective11" />
    <inkscape:perspective
       sodipodi:type="inkscape:persp3d"
       inkscape:vp_x="0 : 212.39997 : 1"
       inkscape:vp_y="0 : 800.00002 : 0"
       inkscape:vp_z="400.00009 : 212.39997 : 1"
       inkscape:persp3d-origin="200.00004 : 137.06666 : 1"
       id="perspective11-3" />
    <clipPath
       clipPathUnits="userSpaceOnUse"
       id="clipPath1314">
      <path
         d="m -335.19667,305.72387 h -6.64176 c 2.92189,-3.8162 12.10223,-18.04857 -0.81479,-32.29199 -14.94453,-16.48244 -44.67776,-65.83766 -30.62429,-98.88667 h 1.09502 c 4.95162,0 8.59302,-3.58689 8.59302,-8.01093 v -1.00135 c 0,-4.42404 -3.6414,-8.01091 -8.59302,-8.01091 h -1.37297 c 12.23561,-10.48027 19.86589,-25.21835 19.86589,-41.5566 0,-31.799308 -28.85344,-57.578423 -64.44503,-57.578423 -35.59155,0 -64.44497,25.779115 -64.44497,57.578423 0,16.33825 7.63029,31.07633 19.86587,41.5566 h -2.49375 c -4.95161,0 -9.33947,3.58687 -9.33947,8.01091 v 1.00135 c 0,4.42404 4.38786,8.01093 9.33947,8.01093 h 2.21804 c 14.05349,33.04901 -15.67975,82.40423 -30.62427,98.88667 -12.9159,14.24342 -3.73669,28.47579 -0.81481,32.29199 h -7.76478 c -4.95162,0 -9.33948,3.58687 -9.33948,8.01093 v 18.02454 c 0,4.42401 4.38786,8.01093 9.33948,8.01093 h 0.74756 v 16.0218 h 165.87583 v -16.0218 c 5.60391,0 8.96626,-3.58692 8.96626,-8.01093 V 313.7348 c 0,-4.42406 -3.64142,-8.01093 -8.59305,-8.01093 z"
         id="path1316"
         style="fill:none;stroke:#000000;stroke-width:7.73542;stroke-miterlimit:4;stroke-dasharray:none;stroke-opacity:1" />
    </clipPath>
  </defs>
  <sodipodi:namedview
     id="base"
     pagecolor="#ffffff"
     bordercolor="#666666"
     borderopacity="1.0"
     inkscape:pageopacity="0.0"
     inkscape:pageshadow="2"
     inkscape:zoom="0.70710678"
     inkscape:cx="141.57986"
     inkscape:cy="545.89806"
     inkscape:document-units="mm"
     inkscape:current-layer="layer1"
     inkscape:document-rotation="0"
     showgrid="false"
     inkscape:window-width="2560"
     inkscape:window-height="1377"
     inkscape:window-x="1912"
     inkscape:window-y="501"
     inkscape:window-maximized="1"
     scale-x="0.8" />
  <metadata
     id="metadata319">
    <rdf:RDF>
      <cc:Work
         rdf:about="">
        <dc:format>image/svg+xml</dc:format>
        <dc:type
           rdf:resource="http://purl.org/dc/dcmitype/StillImage" />
        <dc:title></dc:title>
      </cc:Work>
    </rdf:RDF>
  </metadata>
  <g
     inkscape:label="Layer 1"
     inkscape:groupmode="layer"
     id="layer1">
    <g
       id="g4369"
       transform="translate(-43.030394,-32.553428)">
      <path
         d="m 158.30743,192.69045 h -4.2214 c 1.85711,-2.42552 7.69199,-11.47139 -0.51787,-20.52429 -9.49851,-10.47598 -28.39649,-41.84539 -19.46432,-62.85083 h 0.69598 c 3.14717,0 5.46159,-2.27977 5.46159,-5.09162 v -0.63644 c 0,-2.81185 -2.31442,-5.091611 -5.46159,-5.091611 h -0.87264 c 7.77676,-6.661095 12.62645,-16.028391 12.62645,-26.41273 0,-20.211147 -18.3388,-36.59595 -40.96026,-36.59595 -22.621429,0 -40.960219,16.384803 -40.960219,36.59595 0,10.384339 4.84969,19.751635 12.62644,26.41273 h -1.58498 c -3.14717,0 -5.93603,2.279761 -5.93603,5.091611 v 0.63644 c 0,2.81185 2.78886,5.09162 5.93603,5.09162 h 1.40974 c 8.93218,21.00544 -9.9658,52.37485 -19.46431,62.85083 -8.20914,9.0529 -2.37498,18.09877 -0.51788,20.52429 h -4.93517 c -3.14717,0 -5.93603,2.27976 -5.93603,5.09162 v 11.45612 c 0,2.81183 2.78886,5.09162 5.93603,5.09162 h 0.47514 v 10.18321 H 158.07022 v -10.18321 c 3.56176,0 5.69882,-2.27979 5.69882,-5.09162 v -11.45612 c 0,-2.81186 -2.31443,-5.09162 -5.46161,-5.09162 z"
         id="path517"
         style="fill:none;stroke:#000000;stroke-width:4.91652;stroke-miterlimit:4;stroke-dasharray:none;stroke-opacity:1" />
      <g
         id="g4051"
         transform="matrix(0.63558445,0,0,0.63558445,371.35322,-1.6228873)"
         style="stroke:#000000;stroke-width:3.14671;stroke-miterlimit:4;stroke-dasharray:none;stroke-opacity:1"
         clip-path="url(#clipPath1314)">
        <path
           sodipodi:nodetypes="csssccc"
           inkscape:connector-curvature="0"
           id="path3015"
           d="m -560,55 c 0,0 0,95 0,165 0,80 39.86014,170 142.5,170 102.63986,0 142.5,-90 142.5,-170 0,-70 0,-165 0,-165 h -142.5 z"
           style="color:#000000;display:inline;overflow:visible;visibility:visible;fill:#ffffff;fill-opacity:1;stroke:#000000;stroke-width:3.14671;stroke-miterlimit:4;stroke-dasharray:none;stroke-opacity:1;marker:none;enable-background:accumulate" />
        <path
           id="path4664-1-7"
           d="m -560,150 v 70 c 0,80 39.86014,170 142.5,170 26.1832,0 48.26334,-5.88407 66.65625,-15.9375 -7.54187,-2.28773 -14.91692,-1.06817 -22.75,-10.0625 -11.64837,-13.37527 -1.00789,-22.65597 -12.65625,-36.03125 -11.64841,-13.37527 -22.32037,-4.0935 -33.96875,-17.46875 -11.64837,-13.37526 -0.97661,-22.62472 -12.625,-36 -11.64838,-13.37525 -22.35163,-4.156 -34,-17.53125 -11.64837,-13.37529 -0.97662,-22.59348 -12.625,-35.96875 -11.64838,-13.37526 -22.28914,-4.12476 -33.9375,-17.5 -11.64838,-13.37529 -0.97664,-22.62474 -12.625,-36 C -537.67962,154.12474 -548.35163,163.37526 -560,150 Z"
           clip-path="none"
           style="fill:#000000;stroke:#000000;stroke-width:3.14671;stroke-miterlimit:4;stroke-dasharray:none;stroke-opacity:1"
           inkscape:connector-curvature="0" />
        <path
           sodipodi:nodetypes="cccccccccccccccccccccccccccscc"
           inkscape:connector-curvature="0"
           id="rect3914-5"
           d="m -490,55 v 30 h 30 V 70 h 33.75 v 37.5 h -20 v 30 h 30 v -15 h 33.75 V 160 h -20 v 30 h 30 v -15 h 33.75 v 37.5 h -20 v 30 h 30 v -15 H -295 V 265 h -20 v 30 h 27.59375 C -278.89178,271.06533 -275,245.04217 -275,220 V 55 Z"
           style="color:#000000;display:inline;overflow:visible;visibility:visible;fill:#ed1c24;fill-opacity:1;fill-rule:evenodd;stroke:#000000;stroke-width:3.14671;stroke-miterlimit:4;stroke-dasharray:none;stroke-opacity:1;marker:none;enable-background:accumulate" />
      </g>
    </g>
  </g>
  <g
     inkscape:groupmode="layer"
     id="layer5"
     inkscape:label="Layer 2">
    <g
       id="g549"
       style="fill:none"
       transform="matrix(0.78636864,0,0,0.77407636,-9.5034206,22.101547)" />
    <g
       id="g521"
       style="fill:none"
       transform="matrix(0.78636864,0,0,0.77407636,-9.5034206,22.101547)" />
    <g
       id="g523"
       style="fill:none"
       transform="matrix(0.78636864,0,0,0.77407636,-9.5034206,22.101547)" />
    <g
       id="g525"
       style="fill:none"
       transform="matrix(0.78636864,0,0,0.77407636,-9.5034206,22.101547)" />
    <g
       id="g527"
       style="fill:none"
       transform="matrix(0.78636864,0,0,0.77407636,-9.5034206,22.101547)" />
    <g
       id="g529"
       style="fill:none"
       transform="matrix(0.78636864,0,0,0.77407636,-9.5034206,22.101547)" />
    <g
       id="g531"
       style="fill:none"
       transform="matrix(0.78636864,0,0,0.77407636,-9.5034206,22.101547)" />
    <g
       id="g533"
       style="fill:none"
       transform="matrix(0.78636864,0,0,0.77407636,-9.5034206,22.101547)" />
    <g
       id="g535"
       style="fill:none"
       transform="matrix(0.78636864,0,0,0.77407636,-9.5034206,22.101547)" />
    <g
       id="g537"
       style="fill:none"
       transform="matrix(0.78636864,0,0,0.77407636,-9.5034206,22.101547)" />
    <g
       id="g539"
       style="fill:none"
       transform="matrix(0.78636864,0,0,0.77407636,-9.5034206,22.101547)" />
    <g
       id="g541"
       style="fill:none"
       transform="matrix(0.78636864,0,0,0.77407636,-9.5034206,22.101547)" />
    <g
       id="g543"
       style="fill:none"
       transform="matrix(0.78636864,0,0,0.77407636,-9.5034206,22.101547)" />
    <g
       id="g545"
       style="fill:none"
       transform="matrix(0.78636864,0,0,0.77407636,-9.5034206,22.101547)" />
    <g
       id="g547"
       style="fill:none"
       transform="matrix(0.78636864,0,0,0.77407636,-9.5034206,22.101547)" />
  </g>
</svg>
